<?xml version="1.0" encoding="UTF-8" standalone="no"?>
<svg
   xmlns:dc="http://purl.org/dc/elements/1.1/"
   xmlns:cc="http://creativecommons.org/ns#"
   xmlns:rdf="http://www.w3.org/1999/02/22-rdf-syntax-ns#"
   xmlns:svg="http://www.w3.org/2000/svg"
   xmlns="http://www.w3.org/2000/svg"
   xmlns:sodipodi="http://sodipodi.sourceforge.net/DTD/sodipodi-0.dtd"
   xmlns:inkscape="http://www.inkscape.org/namespaces/inkscape"
   height="512"
   viewBox="0 0 512 512"
   width="512"
   version="1.1"
   id="svg16"
   sodipodi:docname="calendario.svg"
   inkscape:version="0.92.3 (2405546, 2018-03-11)">
  <metadata
     id="metadata22">
    <rdf:RDF>
      <cc:Work
         rdf:about="">
        <dc:format>image/svg+xml</dc:format>
        <dc:type
           rdf:resource="http://purl.org/dc/dcmitype/StillImage" />
        <dc:title></dc:title>
      </cc:Work>
    </rdf:RDF>
  </metadata>
  <defs
     id="defs20" />
  <sodipodi:namedview
     pagecolor="#ffffff"
     bordercolor="#666666"
     borderopacity="1"
     objecttolerance="10"
     gridtolerance="10"
     guidetolerance="10"
     inkscape:pageopacity="0"
     inkscape:pageshadow="2"
     inkscape:window-width="1366"
     inkscape:window-height="706"
     id="namedview18"
     showgrid="false"
     inkscape:zoom="0.4609375"
     inkscape:cx="256"
     inkscape:cy="256"
     inkscape:window-x="-8"
     inkscape:window-y="-8"
     inkscape:window-maximized="1"
     inkscape:current-layer="svg16" />
  <path
     d="m128 112a8.005 8.005 0 0 0 8-8v-32a8 8 0 0 0 -16 0v32a8.005 8.005 0 0 0 8 8z"
     id="path2"
     style="fill:#f2f2f2" />
  <path
     d="m216 112a8.005 8.005 0 0 0 8-8v-32a8 8 0 0 0 -16 0v32a8.005 8.005 0 0 0 8 8z"
     id="path4"
     style="fill:#f2f2f2" />
  <path
     d="m198.109 358.234 16.719-18.89-20.656-3.852z"
     id="path6"
     style="fill:#f2f2f2" />
  <path
     d="m296 112a8.005 8.005 0 0 0 8-8v-32a8 8 0 0 0 -16 0v32a8.005 8.005 0 0 0 8 8z"
     id="path8"
     style="fill:#f2f2f2" />
  <path
     d="m376 112a8.005 8.005 0 0 0 8-8v-32a8 8 0 0 0 -16 0v32a8.005 8.005 0 0 0 8 8z"
     id="path10"
     style="fill:#f2f2f2" />
  <path
     d="m64 424a8.005 8.005 0 0 0 8 8h368a8.005 8.005 0 0 0 8-8v-264h-384zm336-40h16v16h-16zm-32 0h16v16h-16zm-16 16h-16v-16h16zm-161.9-165.508a88.143 88.143 0 1 1 20.523 133.745l-11.563 13.068a8 8 0 0 1 -13.874-3.938l-8.75-50.476a8 8 0 0 1 9.343-9.235l45.86 8.539a8.007 8.007 0 0 1 4.531 13.172l-14.687 16.6a71.95 71.95 0 1 0 -37.305-58.051 7.992 7.992 0 0 1 -7.407 8.547 7.867 7.867 0 0 1 -8.546-7.406 87.368 87.368 0 0 1 21.875-64.565zm102.742 75.93a8 8 0 1 1 -9.594 12.8l-32-24a8 8 0 0 1 -3.2-6.4v-48a8 8 0 0 1 16 0v44z"
     id="path12"
     style="fill:#f2f2f2;fill-opacity:1" />
  <path
     d="m440 96h-40v8a24 24 0 0 1 -48 0v-8h-32v8a24 24 0 0 1 -48 0v-8h-32v8a24 24 0 0 1 -48 0v-8h-40v8a24 24 0 0 1 -48 0v-8h-32a8.005 8.005 0 0 0 -8 8v40h384v-40a8.005 8.005 0 0 0 -8-8z"
     id="path14"
     style="fill:#f2f2f2" />
</svg>
