<?xml version="1.0" ?><svg enable-background="new 0 0 32 32" version="1.1" viewBox="0 0 32 32" xml:space="preserve" xmlns="http://www.w3.org/2000/svg" xmlns:xlink="http://www.w3.org/1999/xlink"><g id="Layer_6"/><g id="Layer_4_copy_2"><g><circle cx="16" cy="16" fill="#D3D3D3" r="16"/><circle cx="16" cy="16" fill="#FFFFFF" r="13.809"/><circle cx="16" cy="16" r="11.597"/></g></g><g id="Official_copy_3"><path d="M22.876,14.658c0.09,0.479,0.138,0.98,0.138,1.503c0,4.089-2.738,6.997-6.872,6.997   c-3.955,0-7.158-3.203-7.158-7.158s3.203-7.158,7.158-7.158c1.933,0,3.548,0.711,4.787,1.866l-2.018,2.018v-0.005   c-0.751-0.716-1.704-1.083-2.769-1.083c-2.362,0-4.281,1.995-4.281,4.358c0,2.362,1.919,4.362,4.281,4.362   c2.143,0,3.601-1.226,3.902-2.908h-3.902v-2.792L22.876,14.658L22.876,14.658z" fill="#FFFFFF"/></g></svg>